<svg xmlns="http://www.w3.org/2000/svg" viewBox="0 0 91.5 36.9"><path d="M0 0h91.5v70H0V0z" fill="none"/><path d="M88.1 4.4l-1.9 5.9c-2.1-.9-4.3-1.4-6.6-1.4-3.2 0-5.7.5-5.7 2.9 0 4.2 11.6 2.6 11.6 11.6 0 8.2-7.7 10.3-14.6 10.3-3.1-.1-6.2-.6-9.2-1.5l1.9-6c2.3 1.2 4.8 1.7 7.4 1.7 2.5 0 6.4-.5 6.4-3.5 0-4.8-11.6-3-11.6-11.3 0-7.7 6.7-10 13.3-10 3.6-.1 7 .3 9 1.3m-22.9-.8L59 33.2h-8l2.6-12.7h-9.4l-2.7 12.7h-8l6.3-29.6h7.9l-2.3 11.3h9.4l2.4-11.3h8zm-28.4 0l-6.3 29.6h-9.9l-6.3-20.5h-.1l-4.1 20.5H2.6L8.9 3.6h10L25 24.1h.1l4.2-20.5h7.5zM91.5 0H0v36.9h91.5V0z" fill="#fff"/></svg>
